# xmcd
#
# Track frame offsets:
#	150
#	12845
#	27222
#	48117
#	66560
#	83590
#	101112
#	117537
#	140105
#	158032
#	176475
#	190807
#	212712
#
# Disc length: 3014 seconds
#
# Revision: 1
# Processed by: cddbd v1.5.1PL0 Copyright (c) Steve Scherf et al.
# Submitted via: CDex 1.50Beta5
#
DISCID=b20bc40d
DTITLE=原田真二 - Save Our Soul
DYEAR=1992
DGENRE=
TTITLE0=Believe
TTITLE1=Oh,Dana
TTITLE2=Happy End
TTITLE3=愛歌
TTITLE4=Without You
TTITLE5=Magic
TTITLE6=Save Our Soul
TTITLE7=Make You Feel Good
TTITLE8=雨のハイウェイ
TTITLE9=Pacific Paradise
TTITLE10=Get Tomorrow
TTITLE11=Today’s Love
TTITLE12=おもちゃばこ
EXTD=
EXTT0=
EXTT1=
EXTT2=
EXTT3=
EXTT4=
EXTT5=
EXTT6=
EXTT7=
EXTT8=
EXTT9=
EXTT10=
EXTT11=
EXTT12=
PLAYORDER=
